<?xml version="1.0" encoding="UTF-8"?><svg id="BG" xmlns="http://www.w3.org/2000/svg" xmlns:xlink="http://www.w3.org/1999/xlink" viewBox="0 0 1000 1000"><defs><clipPath id="clippath"><path d="M500,0h.001C775.958,0,1000,224.042,1000,499.999h0c0,275.958-224.042,500.001-499.999,500.001h-.001C224.042,1000,0,775.958,0,500.001H0C0,224.042,224.042,0,500,0Z" fill="none"/></clipPath></defs><g clip-path="url(#clippath)"><g><polygon points="292.89 0 292.89 1000 0 707.11 0 292.89 292.89 0" fill="#231f20"/><polygon points="1000 292.89 1000 707.11 707.11 1000 707.11 0 1000 292.89" fill="#231f20"/><path d="M292.896-.002H-.002V292.896L707.105,1000.002h292.898v-292.898S292.896-.002,292.896-.002Zm325.436,498.695c0,65.188-52.846,118.034-118.034,118.034h0c-65.188,0-118.034-52.845-118.034-118.034h0c0-65.189,52.846-118.034,118.034-118.034h0c65.188,0,118.034,52.845,118.034,118.034h0Z" fill="#414042"/></g><rect x="426.253" y="426.285" width="145.898" height="145.898" rx="72.949" ry="72.949" fill="#231f20"/></g></svg>